<svg xmlns="http://www.w3.org/2000/svg" viewBox="0 0 196 196">
  <defs>
    <style>
      .b{fill:#5851ff}
    </style>
    <clipPath id="a">
      <path d="M48.52 91.3v57.75a3 3 0 0 0 3 3h21.1a3 3 0 0 0 3-3c0-5.17.09-16.06.09-21.23V88.3H51.52a3 3 0 0 0-3 3z" fill="none"/>
    </clipPath>
  </defs>
  <path class="b" d="M48.52 91.3v57.75a3 3 0 0 0 3 3h21.1a3 3 0 0 0 3-3c0-5.17.09-16.06.09-21.23V88.3H51.52a3 3 0 0 0-3 3zM144.5 66.55a3 3 0 0 0 3-3V47a3 3 0 0 0-3-3c-5.18 0-93-.07-93-.07a3 3 0 0 0-3 3v16.55a3 3 0 0 0 3 3c5.15.03 93 .07 93 .07z"/>
  <path class="b" d="M128.49 110.91a3 3 0 0 0 3-3V91.37a3 3 0 0 0-3-3c-5.17 0-77-.07-77-.07a3 3 0 0 0-3 3v16.54a3 3 0 0 0 3 3c5.16.03 77 .07 77 .07z"/>
  <g clip-path="url(#a)">
    <path fill="#4949c1" d="M75.71 110.87l-27.69 27.7v-27.66l27.69-.04z"/>
  </g>
</svg>